<?xml version="1.0" standalone="no"?><!DOCTYPE svg PUBLIC "-//W3C//DTD SVG 1.1//EN" "http://www.w3.org/Graphics/SVG/1.1/DTD/svg11.dtd"><svg t="1515561346231" class="icon" style="" viewBox="0 0 1024 1024" version="1.1" xmlns="http://www.w3.org/2000/svg" p-id="751" xmlns:xlink="http://www.w3.org/1999/xlink" width="512" height="512"><defs><style type="text/css"></style></defs><path d="M-6.45970103-6.45970103v1036.91940206h1036.91940206V-6.45970103H-6.45970103z m94.2654002 94.2654002h848.38860166v848.38860166H87.80569917V87.80569917z m235.66350047 141.39810026c-32.28589956 0-63.81767593 2.63943121-94.26540021 8.86094763v97.1876276a372.48972884 372.48972884 0 0 1 94.26540021-11.78317502c207.90234011 0 377.06160075 169.15926063 377.06160072 377.06160072 0 32.61582847-3.95914682 64.05333942-11.78317502 94.26540021h97.2347603c6.127251-30.44772426 8.81381491-61.97950062 8.81381493-94.26540021 0-259.88970832-211.43729261-471.32700093-471.32700093-471.32700093z m0 188.53080038c-33.08715547 0-64.71319723 5.75018942-94.26540021 16.21364883v104.58746151A186.83402316 186.83402316 0 0 1 323.46919964 512c103.97473641 0 188.53080036 84.55606397 188.53080036 188.53080036 0 34.50113648-10.32206132 66.40997444-26.53571015 94.26540021h104.6345942A280.29816745 280.29816745 0 0 0 606.26540019 700.53080036c0-155.96210461-126.83409596-282.79620057-282.79620055-282.79620055z m0 188.53080038a94.26540019 94.26540019 0 1 0 0 188.53080038 94.26540019 94.26540019 0 0 0 0-188.53080038z" p-id="752" fill="#6AAB1C" data-spm-anchor-id="a313x.7781069.0.i6" class="selected"></path></svg>