<?xml version="1.0" standalone="no"?>
<!DOCTYPE svg PUBLIC "-//W3C//DTD SVG 20010904//EN"
 "http://www.w3.org/TR/2001/REC-SVG-20010904/DTD/svg10.dtd">
<svg version="1.0" xmlns="http://www.w3.org/2000/svg"
 width="512.000000pt" height="512.000000pt" viewBox="0 0 512.000000 512.000000"
 preserveAspectRatio="xMidYMid meet">
<metadata>
Created by potrace 1.11, written by Peter Selinger 2001-2013
</metadata>
<g transform="translate(0.000000,512.000000) scale(0.100000,-0.100000)"
fill="#000000" stroke="none">
<path d="M0 2560 l0 -2560 2560 0 2560 0 0 2560 0 2560 -2560 0 -2560 0 0
-2560z m4680 0 l0 -2120 -2120 0 -2120 0 0 313 c0 403 0 3276 0 3645 l0 282
2120 0 2120 0 0 -2120z"/>
<path d="M1487 3974 c-1 -1 -38 -5 -82 -8 -44 -3 -89 -8 -100 -10 -20 -4 -124
-19 -137 -20 -19 -2 -22 -37 -23 -255 l0 -238 60 14 c33 8 74 16 90 18 79 10
132 18 150 21 56 11 341 3 424 -11 13 -2 45 -7 70 -11 78 -11 230 -53 346 -95
565 -208 1015 -717 1159 -1309 32 -134 36 -157 51 -310 14 -143 3 -343 -26
-492 -10 -53 -19 -102 -19 -110 0 -11 44 -13 236 -13 265 0 248 -5 258 80 4
28 9 68 12 90 3 22 7 58 9 80 6 48 6 348 1 390 -2 17 -6 62 -10 100 -19 193
-97 485 -182 675 -63 142 -119 244 -207 375 -94 139 -160 220 -291 350 -234
233 -492 401 -831 540 -63 26 -244 79 -304 90 -19 3 -37 8 -41 10 -8 5 -204
34 -282 41 -57 6 -327 12 -331 8z"/>
<path d="M1395 3015 c-90 -16 -237 -55 -245 -66 -4 -6 -5 -483 -1 -512 0 -5
22 3 49 17 125 68 296 106 456 101 119 -3 142 -7 261 -46 216 -69 421 -242
532 -449 117 -216 141 -490 65 -726 -11 -34 -34 -89 -51 -122 -17 -34 -31 -63
-31 -64 0 -2 117 -3 260 -3 l261 0 19 65 c45 151 55 225 55 395 0 179 -16 294
-62 440 -96 305 -317 593 -583 762 -240 152 -477 221 -764 221 -78 0 -177 -6
-221 -13z"/>
<path d="M1525 2078 c-65 -12 -159 -57 -212 -102 -286 -246 -184 -706 180
-811 201 -58 423 33 531 218 43 73 60 139 60 237 0 90 -7 123 -48 204 -95 192
-296 292 -511 254z"/>
</g>
</svg>
